<?xml version="1.0" standalone="no"?>
<!DOCTYPE svg PUBLIC "-//W3C//DTD SVG 20010904//EN"
 "http://www.w3.org/TR/2001/REC-SVG-20010904/DTD/svg10.dtd">
<svg version="1.0" xmlns="http://www.w3.org/2000/svg"
 width="469.000000pt" height="449.000000pt" viewBox="0 0 469.000000 449.000000"
 preserveAspectRatio="xMidYMid meet">

<g transform="translate(0.000000,449.000000) scale(0.100000,-0.100000)"
fill="#000000" stroke="none">
<path d="M159 4476 c-56 -20 -96 -53 -126 -104 l-28 -47 0 -2081 0 -2081 30
-49 c19 -30 49 -60 79 -79 l49 -30 2181 0 2181 0 48 28 c30 18 60 47 78 75
l29 46 0 2091 0 2091 -29 46 c-18 28 -48 57 -78 75 l-48 28 -2165 2 c-1752 2
-2172 0 -2201 -11z m1913 -2018 l3 -1543 743 -3 742 -2 0 -255 0 -255 -1050 0
-1050 0 0 1800 0 1800 305 0 305 0 2 -1542z"/>
</g>
</svg>
